<?xml version="1.0" encoding="UTF-8" standalone="no"?>
<svg
   xmlns:dc="http://purl.org/dc/elements/1.1/"
   xmlns:cc="http://creativecommons.org/ns#"
   xmlns:rdf="http://www.w3.org/1999/02/22-rdf-syntax-ns#"
   xmlns:svg="http://www.w3.org/2000/svg"
   xmlns="http://www.w3.org/2000/svg"
   xmlns:sodipodi="http://sodipodi.sourceforge.net/DTD/sodipodi-0.dtd"
   xmlns:inkscape="http://www.inkscape.org/namespaces/inkscape"
   width="210mm"
   height="297mm"
   viewBox="0 0 210 297"
   version="1.1"
   id="svg8"
   inkscape:version="1.0.1 (c497b03c, 2020-09-10)"
   sodipodi:docname="Logo 2.svg">
  <defs
     id="defs2" />
  <sodipodi:namedview
     id="base"
     pagecolor="#ffffff"
     bordercolor="#666666"
     borderopacity="1.0"
     inkscape:pageopacity="0.0"
     inkscape:pageshadow="2"
     inkscape:zoom="0.72806861"
     inkscape:cx="345.54622"
     inkscape:cy="689.30832"
     inkscape:document-units="mm"
     inkscape:current-layer="layer1"
     inkscape:document-rotation="0"
     showgrid="false"
     inkscape:window-width="1440"
     inkscape:window-height="900"
     inkscape:window-x="0"
     inkscape:window-y="0"
     inkscape:window-maximized="0" />
  <metadata
     id="metadata5">
    <rdf:RDF>
      <cc:Work
         rdf:about="">
        <dc:format>image/svg+xml</dc:format>
        <dc:type
           rdf:resource="http://purl.org/dc/dcmitype/StillImage" />
        <dc:title />
      </cc:Work>
    </rdf:RDF>
  </metadata>
  <g
     inkscape:label="Capa 1"
     inkscape:groupmode="layer"
     id="layer1">
    <ellipse
       style="fill:#dd4814;stroke-width:1.454;fill-opacity:1"
       id="ellipse1534"
       cx="105.91483"
       cy="145.5639"
       rx="58.586308"
       ry="54.050598" />
    <g
       id="g1540"
       style="fill:#1a1a1a"
       transform="matrix(1.0712537,0,0,1.0155112,-8.779041,39.905716)">
      <rect
         style="fill:#1a1a1a;stroke:none;stroke-width:0.964999;stroke-miterlimit:4;stroke-dasharray:none"
         id="rect1536"
         width="35.373493"
         height="53.443321"
         x="108.51983"
         y="38.430279"
         transform="rotate(16.38826)"
         ry="0" />
      <rect
         style="fill:#1a1a1a;stroke:none;stroke-width:0.964999;stroke-miterlimit:4;stroke-dasharray:none"
         id="rect1538"
         width="35.373493"
         height="53.443321"
         x="113.4743"
         y="38.113022"
         transform="rotate(16.38826)"
         ry="5.1483445" />
    </g>
    <rect
       style="fill:#e6e6e6;stroke:none;stroke-width:0.964999;stroke-miterlimit:4;stroke-dasharray:none"
       id="rect1542"
       width="35.373493"
       height="53.443321"
       x="116.95647"
       y="78.48645"
       transform="rotate(16.38826)"
       ry="0" />
    <rect
       style="fill:#e6e6e6;stroke:none;stroke-width:0.964999;stroke-miterlimit:4;stroke-dasharray:none"
       id="rect1544"
       width="35.373493"
       height="53.443321"
       x="121.91093"
       y="78.169197"
       transform="rotate(16.38826)"
       ry="5.1483445" />
    <rect
       style="fill:#999999;stroke:none;stroke-width:0.24125;stroke-miterlimit:4;stroke-dasharray:none"
       id="rect1546"
       width="8.8433733"
       height="13.36083"
       x="120.0452"
       y="86.310638"
       transform="rotate(16.38826)"
       ry="0" />
    <rect
       style="fill:#999999;stroke:none;stroke-width:0.24125;stroke-miterlimit:4;stroke-dasharray:none"
       id="rect1548"
       width="8.8433733"
       height="13.36083"
       x="111.35655"
       y="-151.69664"
       transform="rotate(106.38826)"
       ry="0" />
    <path
       style="fill:none;stroke:#000000;stroke-width:0.264583px;stroke-linecap:butt;stroke-linejoin:miter;stroke-opacity:1"
       d="m 102.41534,123.64372 1.89776,-2.28222 0.47123,2.82526 1.98037,-2.00114 0.31762,2.54709 1.49794,-1.62583 0.44508,2.18631 1.92682,-1.57227 0.31761,2.5471 1.70512,-1.77654 0.44798,2.25731 2.06881,-1.57809 0.88848,2.59484 1.92682,-1.57227 0.23791,2.33702"
       id="path1550" />
    <path
       style="fill:none;stroke:#000000;stroke-width:0.264583px;stroke-linecap:butt;stroke-linejoin:miter;stroke-opacity:1"
       d="m 100.49687,127.76487 1.89776,-2.28222 0.47123,2.82526 1.98038,-2.00114 0.31761,2.54709 1.49794,-1.62583 0.44508,2.18631 1.92682,-1.57227 0.31761,2.5471 1.70512,-1.77654 0.44798,2.25731 2.06881,-1.57809 0.88848,2.59484 1.92682,-1.57227 0.23791,2.33702"
       id="path1552" />
    <path
       style="fill:none;stroke:#000000;stroke-width:0.264583px;stroke-linecap:butt;stroke-linejoin:miter;stroke-opacity:1"
       d="m 98.720514,132.31234 1.897756,-2.28221 0.47123,2.82526 1.98038,-2.00115 0.31761,2.5471 1.49795,-1.62583 0.44508,2.18631 1.92681,-1.57227 0.31761,2.54709 1.70512,-1.77653 0.44798,2.2573 2.06881,-1.57808 0.88848,2.59484 1.92682,-1.57227 0.23791,2.33701"
       id="path1554" />
    <path
       style="fill:none;stroke:#000000;stroke-width:0.264583px;stroke-linecap:butt;stroke-linejoin:miter;stroke-opacity:1"
       d="m 85.4968,134.15497 1.897759,-2.28222 0.471229,2.82526 1.980379,-2.00114 0.317612,2.54709 1.497943,-1.62583 0.44508,2.18632 1.926816,-1.57228 0.31761,2.5471 1.705118,-1.77654 0.44798,2.25731 2.06881,-1.57809 0.88848,2.59484 1.926824,-1.57227 0.23791,2.33702"
       id="path1556" />
    <path
       style="fill:none;stroke:#000000;stroke-width:0.235636px;stroke-linecap:butt;stroke-linejoin:miter;stroke-opacity:1"
       d="m 101.62635,139.04154 1.499,-2.29168 0.37222,2.83697 1.56426,-2.00944 0.25088,2.55765 1.1832,-1.63256 0.35156,2.19537 1.52196,-1.57879 0.25088,2.55765 1.34683,-1.7839 0.35385,2.26666 1.63412,-1.58462 0.70179,2.60559 1.52196,-1.57879 0.18793,2.34671"
       id="path1558" />
    <path
       style="fill:none;stroke:#000000;stroke-width:0.264583px;stroke-linecap:butt;stroke-linejoin:miter;stroke-opacity:1"
       d="m 82.557266,141.99094 1.897759,-2.28222 0.471229,2.82526 1.980379,-2.00115 0.317612,2.5471 1.497943,-1.62583 0.44508,2.18632 1.926816,-1.57228 0.31761,2.5471 1.705118,-1.77654 0.44798,2.25731 2.06881,-1.57809 0.88848,2.59484 1.92682,-1.57227 0.23791,2.33702"
       id="path1560" />
    <path
       style="fill:none;stroke:#000000;stroke-width:0.264583px;stroke-linecap:butt;stroke-linejoin:miter;stroke-opacity:1"
       d="m 80.766727,146.83024 1.897759,-2.28222 0.471229,2.82526 1.980379,-2.00115 0.317612,2.5471 1.497943,-1.62583 0.44508,2.18632 1.926816,-1.57228 0.31761,2.5471 1.705118,-1.77654 0.44798,2.25731 2.06881,-1.57809 0.88848,2.59484 1.92682,-1.57227 0.23791,2.33702"
       id="path1562" />
    <path
       style="fill:none;stroke:#000000;stroke-width:0.264583px;stroke-linecap:butt;stroke-linejoin:miter;stroke-opacity:1"
       d="m 79.024581,151.37918 1.897759,-2.28222 0.471229,2.82526 1.980379,-2.00115 0.317612,2.5471 1.497943,-1.62583 0.44508,2.18632 1.926816,-1.57228 0.31761,2.5471 1.705118,-1.77654 0.44798,2.25731 2.06881,-1.57809 0.88848,2.59484 1.92682,-1.57227 0.23791,2.33702"
       id="path1564" />
    <text
       xml:space="preserve"
       style="font-style:normal;font-weight:normal;font-size:3.88056px;line-height:1.25;font-family:sans-serif;fill:#000000;fill-opacity:1;stroke:none;stroke-width:0.264583"
       x="118.41344"
       y="86.596123"
       id="text1568"
       transform="rotate(15.122236)"><tspan
         sodipodi:role="line"
         id="tspan1566"
         x="118.41344"
         y="86.596123"
         style="font-size:3.88056px;stroke-width:0.264583">Reporters Poètics</tspan></text>
    <g
       id="g1580"
       transform="translate(44.742482,-15.147908)">
      <path
         style="fill:#e2c38a;fill-opacity:1;stroke:#000000;stroke-width:0.264583px;stroke-linecap:butt;stroke-linejoin:miter;stroke-opacity:1"
         d="m 63.499997,193.71732 c -1.603022,-0.0469 -3.183667,-1.07353 -4.233334,-2.286 -1.180484,-1.36358 -1.862666,-5.08 -1.862666,-5.08 0,0 -11.114266,-4.40616 -15.494,-8.29733 -3.242533,-2.88083 -7.450667,-10.668 -7.450667,-10.668 0,0 2.494811,4.25273 4.572,5.334 1.282837,0.66777 2.917716,0.78499 4.318,0.42333 2.98637,-0.77131 5.435233,-3.07215 7.62,-5.24933 3.260707,-3.24938 5.119765,-7.65685 7.874,-11.34533 1.96992,-2.63812 3.251742,-6.20078 6.180667,-7.70467 1.860563,-0.95533 4.462985,-1.39974 6.265333,-0.33866 3.117346,1.83524 6.147399,6.46285 10.244666,9.22866 4.636544,3.12984 11.405145,4.73809 13.546667,9.906 0.77624,1.87322 0.09573,4.263 -0.931333,6.01133 -1.069463,1.8205 -2.928791,3.4618 -4.995334,3.89467 -1.567696,0.32838 -3.628002,0.0424 -4.656666,-1.18533 -2.013861,-2.40362 2.064935,-4.16052 2.963333,-6.096 0.31393,-0.67632 -1.100667,-1.94734 -1.100667,-1.94734 0,0 -2.712041,2.10966 -3.725333,3.47134 -1.559733,2.09599 -2.190574,4.75014 -3.471333,7.02733 -1.212828,2.15641 -2.461955,4.3112 -3.979334,6.26533 -1.591865,2.05005 -3.231242,4.15111 -5.334,5.67267 -1.892346,1.36931 -4.015195,3.03165 -6.349999,2.96333 z"
         id="path1572"
         sodipodi:nodetypes="sscscsssssssssssscsssss" />
      <path
         style="fill:#5d4129;fill-opacity:1;stroke:#000000;stroke-width:0.264583px;stroke-linecap:butt;stroke-linejoin:miter;stroke-opacity:1"
         d="m 87.460663,170.26466 c -1.271269,1.72177 -4.812025,3.6876 -2.963333,6.096 0.975282,1.27056 3.088969,1.51371 4.656664,1.18533 2.066544,-0.43287 3.567767,-2.33903 4.995336,-3.89467 1.579057,-1.72072 1.432531,-5.98627 0.931333,-6.01133 0,0 -3.184603,-1.2687 -4.826,-1.10067 -1.419688,0.14533 -3.894669,1.778 -3.894669,1.778 0,0 1.54356,1.3475 1.100669,1.94734 z"
         id="path1574"
         sodipodi:nodetypes="sssscscs" />
      <path
         style="fill:#48341e;fill-opacity:1;stroke:#000000;stroke-width:0.264583px;stroke-linecap:butt;stroke-linejoin:miter;stroke-opacity:1"
         d="m 57.403997,186.35132 c 0,0 -11.114266,-4.40616 -15.494,-8.29733 -3.242533,-2.88083 -7.450667,-10.668 -7.450667,-10.668 0,0 2.230321,5.72377 3.979334,8.21267 1.996594,2.84122 4.622898,5.21647 7.281333,7.45066 3.248084,2.72975 6.746935,5.21524 10.498666,7.19667 0.963945,0.5091 7.281334,3.47133 7.281334,3.47133 -3.538676,-0.65915 -6.033258,-4.25025 -6.096,-7.366 z"
         id="path1576"
         sodipodi:nodetypes="cscssscc" />
      <path
         style="fill:#907246;fill-opacity:1;stroke:#000000;stroke-width:0.264583px;stroke-linecap:butt;stroke-linejoin:miter;stroke-opacity:1"
         d="m 85.642717,177.3667 -4.30279,-3.20282 c 0,0 0.942628,-2.05316 1.64964,-2.91859 0.941538,-1.1525 3.370427,-2.92797 3.370427,-2.92797 0,0 1.513129,1.32619 1.100669,1.94734 -0.796174,1.19901 -2.410474,2.35267 -3.329038,4.02612 -0.812301,1.47986 1.321015,3.11541 1.511092,3.07592 z"
         id="path1578"
         sodipodi:nodetypes="ccscssc" />
    </g>
    <path
       style="fill:none;stroke:#000000;stroke-width:0.264583px;stroke-linecap:butt;stroke-linejoin:miter;stroke-opacity:1"
       d="m 106.69189,142.5415 3.25587,-1.23195 0.088,2.4639 3.16786,-0.96796 -0.088,2.3759 3.78384,-0.43998 -0.43998,2.4639 3.51986,-0.87997 -0.088,2.55189 3.43185,-0.61597 -0.35198,2.90388"
       id="path1582" />
    <path
       style="fill:none;stroke:#000000;stroke-width:0.264583px;stroke-linecap:butt;stroke-linejoin:miter;stroke-opacity:1"
       d="m 104.40399,146.58933 2.81588,-1.14395 v 2.55189 l 2.81588,-0.79196 -0.43998,2.1999 2.90388,-0.96796 -0.52798,2.3759 v 0"
       id="path1584" />
    <path
       style="fill:none;stroke:#000000;stroke-width:0.264583px;stroke-linecap:butt;stroke-linejoin:miter;stroke-opacity:1"
       d="m 101.41211,150.02119 2.72789,-1.05596 -0.70397,1.84792 2.55189,-0.87996 -0.70397,2.19991 2.5519,-0.96796 -0.61598,2.11191 2.55189,-1.23195 -0.52797,2.3759 2.55189,-1.05595 -0.17599,2.11191 2.46389,-0.96796 -0.17599,2.2879 v 0"
       id="path1586" />
    <path
       style="fill:none;stroke:#000000;stroke-width:0.264583px;stroke-linecap:butt;stroke-linejoin:miter;stroke-opacity:1"
       d="m 98.772224,153.54104 2.727886,-1.05596 -0.70397,2.3759 2.81588,-1.14395 -0.43998,2.28791 2.72789,-1.05596 -0.52798,2.63989 2.90388,-0.87996 -0.26399,2.02391 3.60785,-0.61597 -0.61598,2.46389 3.25587,-0.52797 -0.088,2.55189"
       id="path1588" />
    <path
       style="fill:none;stroke:#000000;stroke-width:0.264583px;stroke-linecap:butt;stroke-linejoin:miter;stroke-opacity:1"
       d="m 101.7641,164.89256 c -0.357,0.80324 3.95794,1.02028 5.36777,0.61598 2.05671,-0.5898 2.27139,-4.06395 -0.26399,-1.93591 -1.31959,1.10759 -5.1713,3.97313 -3.78384,3.43185 1.70169,-0.66386 4.76789,0.37828 4.75181,0.79196 l -2.68587,0.66125 7.34967,-0.74924 3.5524,-0.51312"
       id="path1590"
       sodipodi:nodetypes="cssscccc" />
    <ellipse
       style="fill:#aa0000;fill-opacity:1;stroke:#790000;stroke-width:0.665;stroke-miterlimit:4;stroke-dasharray:none;stroke-opacity:1"
       id="ellipse1592"
       cx="109.37426"
       cy="173.06168"
       rx="2.4367456"
       ry="2.3207102" />
    <g
       id="g1622"
       transform="translate(54.874772,-76.176533)">
      <path
         style="fill:#b5b6ba;fill-opacity:1;stroke:#000000;stroke-width:0.264583px;stroke-linecap:butt;stroke-linejoin:miter;stroke-opacity:1"
         d="m 23.535228,208.25323 c 0,0 -0.184843,-2.00186 -0.470704,-2.95871 -0.140718,-0.47102 -0.316404,-0.94705 -0.605192,-1.34487 -0.587251,-0.80897 -1.356417,-1.51214 -2.219027,-2.01731 -0.366986,-0.21492 -1.210384,-0.40346 -1.210384,-0.40346 l -0.268974,0.26898 c 0,0 -2.178927,-1.10632 -3.362177,-1.34488 -2.527206,-0.50952 -7.7330067,-0.13448 -7.7330067,-0.13448 0,0 2.7667507,1.14576 3.9673687,2.0173 0.872194,0.63313 1.540217,1.50849 2.28628,2.28629 1.054176,1.09902 3.093203,3.36217 3.093203,3.36217 0,0 2.148083,0.26258 3.22769,0.26897 0.629194,0.004 1.253658,-0.14192 1.882819,-0.13448 0.472798,0.006 1.412104,0.13448 1.412104,0.13448 z"
         id="path1596"
         sodipodi:nodetypes="csssccscsscssc" />
      <path
         style="fill:#f5f9f6;fill-opacity:1;stroke:#000000;stroke-width:0.264583px;stroke-linecap:butt;stroke-linejoin:miter;stroke-opacity:1"
         d="m 48.175335,236.13534 c 0,0 -5.689547,-7.98768 -8.805333,-11.76866 -3.608679,-4.3791 -7.233602,-8.79574 -11.43,-12.61534 -3.20581,-2.91795 -6.742485,-5.48463 -10.414001,-7.78933 -1.400525,-0.87914 -4.402667,-2.286 -4.402667,-2.286 0,0 2.408473,1.40973 3.556,2.20133 3.745024,2.58342 7.573419,5.12777 10.837335,8.29733 6.7068,6.51292 17.695333,21.75934 17.695333,21.75934 z"
         id="path1598"
         sodipodi:nodetypes="cssscsscc" />
      <path
         style="fill:#e8e9eb;fill-opacity:1;stroke:#000000;stroke-width:0.264583px;stroke-linecap:butt;stroke-linejoin:miter;stroke-opacity:1"
         d="m 42.333335,228.09201 c 0,0 -2.130787,-6.6491 -3.725333,-9.73667 -1.213998,-2.3507 -4.402666,-6.604 -4.402666,-6.604 0,0 0.522388,1.73366 0.508,2.62467 -0.02056,1.27328 -0.846667,3.72533 -0.846667,3.72533 z"
         id="path1600"
         sodipodi:nodetypes="cscscc" />
      <path
         style="fill:#dbdbdd;fill-opacity:1;stroke:#000000;stroke-width:0.264583px;stroke-linecap:butt;stroke-linejoin:miter;stroke-opacity:1"
         d="m 33.866669,218.10134 c 0,0 0.172981,-2.65863 0.02466,-3.97549 -0.1194,-1.06009 -0.145152,-2.22434 -0.731239,-3.11571 -2.439601,-3.71035 -10.700758,-7.93466 -10.700758,-7.93466 0,0 -0.06115,0.58927 0,0.87417 0.103163,0.48064 0.464474,0.87385 0.605192,1.34487 0.285861,0.95685 0.470704,2.95871 0.470704,2.95871 l 4.404765,3.49811 z"
         id="path1602"
         sodipodi:nodetypes="csscssccc" />
      <path
         style="fill:#dbdbdd;fill-opacity:1;stroke:#000000;stroke-width:0.264583px;stroke-linecap:butt;stroke-linejoin:miter;stroke-opacity:1"
         d="m 22.123124,208.11875 c -0.599541,-0.19091 -1.253625,0.1382 -1.882819,0.13448 -1.079607,-0.006 -3.22769,-0.26897 -3.22769,-0.26897 0,0 4.057151,4.43869 6.589867,5.98468 0.817313,0.4989 1.744331,0.85667 2.689741,1.00865 1.107403,0.17802 3.362176,-0.13449 3.362176,-0.13449 0.01081,0.01 -0.534067,-1.45473 -2.13773,-2.66843 -1.952931,-1.47803 -3.294794,-3.38761 -5.393545,-4.05592 z"
         id="path1604"
         sodipodi:nodetypes="sscsscss" />
      <path
         style="fill:#e8e9eb;fill-opacity:1;stroke:#000000;stroke-width:0.264583px;stroke-linecap:butt;stroke-linejoin:miter;stroke-opacity:1"
         d="m 29.654399,214.8431 c 0,0 -2.241492,0.18033 -3.362176,0.13449 -0.592559,-0.0242 -1.191091,-0.0705 -1.765996,-0.21607 -0.425995,-0.10788 -1.227041,-0.48205 -1.227041,-0.48205 0,0 5.874673,8.55131 10.216616,11.07678 1.701553,0.9897 6.189367,1.2092 6.189367,1.2092 -3.258105,-3.95353 -6.055051,-8.13763 -10.05077,-11.72235 z"
         id="path1606"
         sodipodi:nodetypes="csscscc" />
      <path
         style="fill:none;stroke:#000000;stroke-width:0.065;stroke-linecap:butt;stroke-linejoin:miter;stroke-miterlimit:4;stroke-dasharray:none;stroke-opacity:1"
         d="m 25.532044,209.67473 c 0,0 0.297232,-1.09085 0.24629,-1.64194 -0.0693,-0.74973 -0.73887,-2.13451 -0.73887,-2.13451"
         id="path1608"
         sodipodi:nodetypes="csc" />
      <path
         style="fill:none;stroke:#000000;stroke-width:0.065;stroke-linecap:butt;stroke-linejoin:miter;stroke-miterlimit:4;stroke-dasharray:none;stroke-opacity:1"
         d="m 28.651713,213.28697 c 0,0 -1.771276,0.10545 -2.62709,-0.0821 -0.754652,-0.16538 -2.134511,-0.90306 -2.134511,-0.90306"
         id="path1610"
         sodipodi:nodetypes="csc" />
      <path
         style="fill:none;stroke:#000000;stroke-width:0.065;stroke-linecap:butt;stroke-linejoin:miter;stroke-miterlimit:4;stroke-dasharray:none;stroke-opacity:1"
         d="m 19.621088,205.15941 c 0,0 0.104688,-0.99641 0,-1.47774 -0.146708,-0.67453 -0.860141,-1.88381 -0.860141,-1.88381"
         id="path1612"
         sodipodi:nodetypes="csc" />
      <path
         style="fill:none;stroke:#000000;stroke-width:0.065;stroke-linecap:butt;stroke-linejoin:miter;stroke-miterlimit:4;stroke-dasharray:none;stroke-opacity:1"
         d="m 17.486577,204.50264 c 0,0 -1.260362,0.23448 -1.888222,0.16419 -0.713853,-0.0799 -2.052415,-0.65677 -2.052415,-0.65677"
         id="path1614"
         sodipodi:nodetypes="csc" />
      <path
         style="fill:none;stroke:#000000;stroke-width:0.065;stroke-linecap:butt;stroke-linejoin:miter;stroke-miterlimit:4;stroke-dasharray:none;stroke-opacity:1"
         d="m 31.853483,215.83197 c 0,0 0.244879,-1.71198 0.08209,-2.54499 -0.206769,-1.05806 -1.313545,-2.95548 -1.313545,-2.95548"
         id="path1616"
         sodipodi:nodetypes="csc" />
      <path
         style="fill:none;stroke:#000000;stroke-width:0.065;stroke-linecap:butt;stroke-linejoin:miter;stroke-miterlimit:4;stroke-dasharray:none;stroke-opacity:1"
         d="m 26.072778,210.23812 c 0,0 0.56893,-1.38265 0.541929,-2.1075 -0.02682,-0.71991 -0.692464,-2.04728 -0.692464,-2.04728"
         id="path1618"
         sodipodi:nodetypes="csc" />
      <path
         style="fill:none;stroke:#000000;stroke-width:0.065;stroke-linecap:butt;stroke-linejoin:miter;stroke-miterlimit:4;stroke-dasharray:none;stroke-opacity:1"
         d="m 28.059851,212.76712 c 0,0 -1.243177,0.0633 -1.836537,-0.0903 -0.703886,-0.18221 -1.956963,-0.96343 -1.956963,-0.96343"
         id="path1620"
         sodipodi:nodetypes="csc" />
    </g>
  </g>
</svg>
